<svg id="visual" viewBox="0 0 900 900" width="900" height="900" xmlns="http://www.w3.org/2000/svg" xmlns:xlink="http://www.w3.org/1999/xlink" version="1.1"><g stroke-width="1" stroke-linejoin="bevel"><path d="M437.8 419L406 426.8L419 465Z" fill="#b98700" stroke="#b98700"></path><path d="M365.5 391.8L363.5 432L406 426.8Z" fill="#a65f01" stroke="#a65f01"></path><path d="M406 426.8L363.5 432L419 465Z" fill="#bd9100" stroke="#bd9100"></path><path d="M378.8 378.8L365.5 391.8L406 426.8Z" fill="#bd9100" stroke="#bd9100"></path><path d="M437.8 419L378.8 378.8L406 426.8Z" fill="#ab6900" stroke="#ab6900"></path><path d="M363.5 432L366.8 493.3L419 465Z" fill="#ab6900" stroke="#ab6900"></path><path d="M519.5 409.8L494 370.5L437.8 419Z" fill="#8c3a07" stroke="#8c3a07"></path><path d="M437.8 419L384.8 341.5L378.8 378.8Z" fill="#bd9100" stroke="#bd9100"></path><path d="M532.5 514.3L522.3 421L419 465Z" fill="#994c04" stroke="#994c04"></path><path d="M419 465L522.3 421L437.8 419Z" fill="#b07300" stroke="#b07300"></path><path d="M522.3 421L519.5 409.8L437.8 419Z" fill="#b57d00" stroke="#b57d00"></path><path d="M366.8 493.3L423.8 540.5L419 465Z" fill="#a65f01" stroke="#a65f01"></path><path d="M519.5 409.8L517.3 389.8L494 370.5Z" fill="#a65f01" stroke="#a65f01"></path><path d="M552.3 365.5L517.3 389.8L519.5 409.8Z" fill="#b07300" stroke="#b07300"></path><path d="M469.3 322.3L384.8 341.5L437.8 419Z" fill="#bd9100" stroke="#bd9100"></path><path d="M329.5 338.5L312.3 377.8L365.5 391.8Z" fill="#934306" stroke="#934306"></path><path d="M423.8 540.5L476.3 546.3L419 465Z" fill="#bd9100" stroke="#bd9100"></path><path d="M479.3 574.8L480 549.3L476.3 546.3Z" fill="#994c04" stroke="#994c04"></path><path d="M476.3 546.3L532.5 514.3L419 465Z" fill="#b98700" stroke="#b98700"></path><path d="M312.5 536.3L353.5 542.5L366.8 493.3Z" fill="#a65f01" stroke="#a65f01"></path><path d="M366.8 493.3L353.5 542.5L423.8 540.5Z" fill="#a65f01" stroke="#a65f01"></path><path d="M423.8 540.5L479.3 574.8L476.3 546.3Z" fill="#a05603" stroke="#a05603"></path><path d="M312.5 536.3L366.8 493.3L284.3 518.3Z" fill="#c09b03" stroke="#c09b03"></path><path d="M552.3 365.5L469.3 322.3L494 370.5Z" fill="#8c3a07" stroke="#8c3a07"></path><path d="M494 370.5L469.3 322.3L437.8 419Z" fill="#b07300" stroke="#b07300"></path><path d="M480 549.3L532.5 514.3L476.3 546.3Z" fill="#ab6900" stroke="#ab6900"></path><path d="M329.5 338.5L365.5 391.8L378.8 378.8Z" fill="#8c3a07" stroke="#8c3a07"></path><path d="M365.5 391.8L312.3 377.8L363.5 432Z" fill="#b98700" stroke="#b98700"></path><path d="M532.5 514.3L566.5 436L522.3 421Z" fill="#b57d00" stroke="#b57d00"></path><path d="M522.3 421L566.5 436L519.5 409.8Z" fill="#a05603" stroke="#a05603"></path><path d="M517.3 389.8L552.3 365.5L494 370.5Z" fill="#a65f01" stroke="#a65f01"></path><path d="M345.5 294.3L329.5 338.5L384.8 341.5Z" fill="#b57d00" stroke="#b57d00"></path><path d="M384.8 341.5L329.5 338.5L378.8 378.8Z" fill="#b57d00" stroke="#b57d00"></path><path d="M421.8 600.8L479.3 574.8L423.8 540.5Z" fill="#934306" stroke="#934306"></path><path d="M480 549.3L533.3 555.5L532.5 514.3Z" fill="#a05603" stroke="#a05603"></path><path d="M566.5 436L552.3 365.5L519.5 409.8Z" fill="#b57d00" stroke="#b57d00"></path><path d="M269 477L366.8 493.3L363.5 432Z" fill="#b07300" stroke="#b07300"></path><path d="M353.5 542.5L421.8 600.8L423.8 540.5Z" fill="#a65f01" stroke="#a65f01"></path><path d="M258 335.5L272 440.8L312.3 377.8Z" fill="#934306" stroke="#934306"></path><path d="M312.3 377.8L272 440.8L363.5 432Z" fill="#ab6900" stroke="#ab6900"></path><path d="M479.3 574.8L533.3 555.5L480 549.3Z" fill="#a05603" stroke="#a05603"></path><path d="M532.5 514.3L598.8 475L566.5 436Z" fill="#a05603" stroke="#a05603"></path><path d="M424 605.8L421.8 600.8L381.5 624.8Z" fill="#994c04" stroke="#994c04"></path><path d="M479.3 574.8L547.5 583.5L533.3 555.5Z" fill="#b07300" stroke="#b07300"></path><path d="M272 440.8L269 477L363.5 432Z" fill="#a05603" stroke="#a05603"></path><path d="M266 459.3L269 477L272 440.8Z" fill="#a05603" stroke="#a05603"></path><path d="M269 477L284.3 518.3L366.8 493.3Z" fill="#b98700" stroke="#b98700"></path><path d="M381.5 624.8L421.8 600.8L353.5 542.5Z" fill="#b07300" stroke="#b07300"></path><path d="M421.8 600.8L471 602.5L479.3 574.8Z" fill="#994c04" stroke="#994c04"></path><path d="M284.3 518.3L293.3 542.5L312.5 536.3Z" fill="#8c3a07" stroke="#8c3a07"></path><path d="M316.3 628.8L381.5 624.8L353.5 542.5Z" fill="#b57d00" stroke="#b57d00"></path><path d="M424 605.8L471 602.5L421.8 600.8Z" fill="#bd9100" stroke="#bd9100"></path><path d="M393.8 259.3L345.5 294.3L384.8 341.5Z" fill="#bd9100" stroke="#bd9100"></path><path d="M329.5 338.5L258 335.5L312.3 377.8Z" fill="#c09b03" stroke="#c09b03"></path><path d="M345.5 294.3L315.3 309.5L329.5 338.5Z" fill="#a05603" stroke="#a05603"></path><path d="M628 542.5L598.8 475L532.5 514.3Z" fill="#a65f01" stroke="#a65f01"></path><path d="M566.5 436L587.8 348.5L552.3 365.5Z" fill="#bd9100" stroke="#bd9100"></path><path d="M266 459.3L254.3 494L269 477Z" fill="#c09b03" stroke="#c09b03"></path><path d="M269 477L254.3 494L284.3 518.3Z" fill="#8c3a07" stroke="#8c3a07"></path><path d="M284.3 518.3L251 558.5L293.3 542.5Z" fill="#a05603" stroke="#a05603"></path><path d="M202.8 403.8L254.3 494L266 459.3Z" fill="#934306" stroke="#934306"></path><path d="M202.8 403.8L266 459.3L272 440.8Z" fill="#994c04" stroke="#994c04"></path><path d="M460 258.3L393.8 259.3L469.3 322.3Z" fill="#bd9100" stroke="#bd9100"></path><path d="M469.3 322.3L393.8 259.3L384.8 341.5Z" fill="#8c3a07" stroke="#8c3a07"></path><path d="M345.5 294.3L314.3 254L315.3 309.5Z" fill="#a05603" stroke="#a05603"></path><path d="M508.3 265L460 258.3L469.3 322.3Z" fill="#ab6900" stroke="#ab6900"></path><path d="M643.8 410.8L587.8 348.5L566.5 436Z" fill="#994c04" stroke="#994c04"></path><path d="M552.3 365.5L508.3 265L469.3 322.3Z" fill="#b57d00" stroke="#b57d00"></path><path d="M471 602.5L547.5 583.5L479.3 574.8Z" fill="#bd9100" stroke="#bd9100"></path><path d="M533.3 555.5L628 542.5L532.5 514.3Z" fill="#b57d00" stroke="#b57d00"></path><path d="M316.3 628.8L353.5 542.5L312.5 536.3Z" fill="#c09b03" stroke="#c09b03"></path><path d="M424 605.8L445 671L471 602.5Z" fill="#934306" stroke="#934306"></path><path d="M471 602.5L500.3 670L547.5 583.5Z" fill="#c09b03" stroke="#c09b03"></path><path d="M559.5 268.3L508.3 265L552.3 365.5Z" fill="#b57d00" stroke="#b57d00"></path><path d="M234.3 290.3L258 335.5L315.3 309.5Z" fill="#994c04" stroke="#994c04"></path><path d="M315.3 309.5L258 335.5L329.5 338.5Z" fill="#ab6900" stroke="#ab6900"></path><path d="M364.5 207L351.8 252L393.8 259.3Z" fill="#b98700" stroke="#b98700"></path><path d="M393.8 259.3L351.8 252L345.5 294.3Z" fill="#b57d00" stroke="#b57d00"></path><path d="M316.3 628.8L373.5 640L381.5 624.8Z" fill="#b07300" stroke="#b07300"></path><path d="M381.5 624.8L445 671L424 605.8Z" fill="#b07300" stroke="#b07300"></path><path d="M254.3 494L251 558.5L284.3 518.3Z" fill="#c09b03" stroke="#c09b03"></path><path d="M293.3 542.5L316.3 628.8L312.5 536.3Z" fill="#b98700" stroke="#b98700"></path><path d="M144.8 490.3L251 558.5L254.3 494Z" fill="#bd9100" stroke="#bd9100"></path><path d="M662.8 312.3L600.5 315.5L587.8 348.5Z" fill="#a05603" stroke="#a05603"></path><path d="M587.8 348.5L559.5 268.3L552.3 365.5Z" fill="#b98700" stroke="#b98700"></path><path d="M251 558.5L316.3 628.8L293.3 542.5Z" fill="#c09b03" stroke="#c09b03"></path><path d="M351.8 252L314.3 254L345.5 294.3Z" fill="#934306" stroke="#934306"></path><path d="M600.5 315.5L559.5 268.3L587.8 348.5Z" fill="#994c04" stroke="#994c04"></path><path d="M506.3 208.8L460 205.8L460 258.3Z" fill="#b98700" stroke="#b98700"></path><path d="M692.3 411L643.8 410.8L713 476.3Z" fill="#b07300" stroke="#b07300"></path><path d="M598.8 475L643.8 410.8L566.5 436Z" fill="#c09b03" stroke="#c09b03"></path><path d="M547.5 583.5L628 542.5L533.3 555.5Z" fill="#b07300" stroke="#b07300"></path><path d="M155.8 371.5L202.8 403.8L258 335.5Z" fill="#bd9100" stroke="#bd9100"></path><path d="M258 335.5L202.8 403.8L272 440.8Z" fill="#934306" stroke="#934306"></path><path d="M387.8 678L381.5 624.8L373.5 640Z" fill="#994c04" stroke="#994c04"></path><path d="M387.8 678L445 671L381.5 624.8Z" fill="#a65f01" stroke="#a65f01"></path><path d="M547.5 583.5L615.8 609.8L628 542.5Z" fill="#8c3a07" stroke="#8c3a07"></path><path d="M506.3 208.8L460 258.3L508.3 265Z" fill="#a65f01" stroke="#a65f01"></path><path d="M460 258.3L402 201L393.8 259.3Z" fill="#b98700" stroke="#b98700"></path><path d="M351.8 252L364.5 207L314.3 254Z" fill="#8c3a07" stroke="#8c3a07"></path><path d="M325.3 681L387.8 678L373.5 640Z" fill="#ab6900" stroke="#ab6900"></path><path d="M490.3 709.3L500.3 670L445 671Z" fill="#a05603" stroke="#a05603"></path><path d="M445 671L500.3 670L471 602.5Z" fill="#c09b03" stroke="#c09b03"></path><path d="M460 205.8L402 201L460 258.3Z" fill="#a65f01" stroke="#a65f01"></path><path d="M402 201L364.5 207L393.8 259.3Z" fill="#994c04" stroke="#994c04"></path><path d="M239 256.3L234.3 290.3L314.3 254Z" fill="#bd9100" stroke="#bd9100"></path><path d="M314.3 254L234.3 290.3L315.3 309.5Z" fill="#c09b03" stroke="#c09b03"></path><path d="M692.3 411L668 403.8L643.8 410.8Z" fill="#c09b03" stroke="#c09b03"></path><path d="M687.3 362.8L662.8 312.3L587.8 348.5Z" fill="#b07300" stroke="#b07300"></path><path d="M515.5 208L506.3 208.8L508.3 265Z" fill="#ab6900" stroke="#ab6900"></path><path d="M460 205.8L390.8 172.8L402 201Z" fill="#a05603" stroke="#a05603"></path><path d="M559.5 268.3L515.5 208L508.3 265Z" fill="#ab6900" stroke="#ab6900"></path><path d="M369.5 144.8L415 94.3L362.5 121.5Z" fill="#994c04" stroke="#994c04"></path><path d="M597.5 188.8L515.5 208L559.5 268.3Z" fill="#ab6900" stroke="#ab6900"></path><path d="M585.5 665.8L615.8 609.8L547.5 583.5Z" fill="#a65f01" stroke="#a65f01"></path><path d="M692.3 411L677 402L668 403.8Z" fill="#a65f01" stroke="#a65f01"></path><path d="M663.8 544.3L598.8 475L628 542.5Z" fill="#bd9100" stroke="#bd9100"></path><path d="M687.3 362.8L587.8 348.5L643.8 410.8Z" fill="#bd9100" stroke="#bd9100"></path><path d="M647 207.8L597.5 188.8L559.5 268.3Z" fill="#8c3a07" stroke="#8c3a07"></path><path d="M655.8 579.5L663.8 544.3L628 542.5Z" fill="#bd9100" stroke="#bd9100"></path><path d="M247.3 701.3L325.3 681L316.3 628.8Z" fill="#b57d00" stroke="#b57d00"></path><path d="M316.3 628.8L325.3 681L373.5 640Z" fill="#b07300" stroke="#b07300"></path><path d="M246 203.8L239 256.3L314.3 254Z" fill="#b57d00" stroke="#b57d00"></path><path d="M234.3 290.3L155.8 371.5L258 335.5Z" fill="#bd9100" stroke="#bd9100"></path><path d="M713 476.3L643.8 410.8L598.8 475Z" fill="#b98700" stroke="#b98700"></path><path d="M687.3 362.8L643.8 410.8L668 403.8Z" fill="#994c04" stroke="#994c04"></path><path d="M615.8 609.8L655.8 579.5L628 542.5Z" fill="#a65f01" stroke="#a65f01"></path><path d="M687.3 362.8L668 403.8L677 402Z" fill="#a05603" stroke="#a05603"></path><path d="M364.8 714.3L404 710.3L387.8 678Z" fill="#994c04" stroke="#994c04"></path><path d="M387.8 678L404 710.3L445 671Z" fill="#c09b03" stroke="#c09b03"></path><path d="M402 201L390.8 172.8L364.5 207Z" fill="#b98700" stroke="#b98700"></path><path d="M364.5 207L246 203.8L314.3 254Z" fill="#934306" stroke="#934306"></path><path d="M390.8 172.8L415 94.3L369.5 144.8Z" fill="#b98700" stroke="#b98700"></path><path d="M706 367.5L687.3 362.8L677 402Z" fill="#8c3a07" stroke="#8c3a07"></path><path d="M500.3 670L585.5 665.8L547.5 583.5Z" fill="#8c3a07" stroke="#8c3a07"></path><path d="M650 652L691 584.8L655.8 579.5Z" fill="#a05603" stroke="#a05603"></path><path d="M518.5 714L585.5 665.8L500.3 670Z" fill="#b07300" stroke="#b07300"></path><path d="M404 710.3L490.3 709.3L445 671Z" fill="#934306" stroke="#934306"></path><path d="M131.5 319.5L155.8 371.5L234.3 290.3Z" fill="#a65f01" stroke="#a65f01"></path><path d="M202.8 403.8L144.8 490.3L254.3 494Z" fill="#994c04" stroke="#994c04"></path><path d="M325.3 681L364.8 714.3L387.8 678Z" fill="#ab6900" stroke="#ab6900"></path><path d="M496.3 740.5L518.5 714L490.3 709.3Z" fill="#b07300" stroke="#b07300"></path><path d="M131.5 319.5L150.5 374.8L155.8 371.5Z" fill="#b98700" stroke="#b98700"></path><path d="M155.8 371.5L150.5 374.8L202.8 403.8Z" fill="#bd9100" stroke="#bd9100"></path><path d="M128.8 426L144.8 490.3L202.8 403.8Z" fill="#8c3a07" stroke="#8c3a07"></path><path d="M251 558.5L204.8 623.8L316.3 628.8Z" fill="#b57d00" stroke="#b57d00"></path><path d="M179 594.8L204.8 623.8L251 558.5Z" fill="#a05603" stroke="#a05603"></path><path d="M325.3 681L312.5 713.3L364.8 714.3Z" fill="#994c04" stroke="#994c04"></path><path d="M496.3 740.5L490.3 709.3L462 766.5Z" fill="#bd9100" stroke="#bd9100"></path><path d="M490.3 709.3L518.5 714L500.3 670Z" fill="#b07300" stroke="#b07300"></path><path d="M663.8 544.3L713 476.3L598.8 475Z" fill="#bd9100" stroke="#bd9100"></path><path d="M692.3 411L706 367.5L677 402Z" fill="#ab6900" stroke="#ab6900"></path><path d="M752.3 557.5L713 476.3L663.8 544.3Z" fill="#a05603" stroke="#a05603"></path><path d="M747.5 394.8L706 367.5L692.3 411Z" fill="#b07300" stroke="#b07300"></path><path d="M687.3 362.8L728.3 300.5L662.8 312.3Z" fill="#934306" stroke="#934306"></path><path d="M144.8 490.3L179 594.8L251 558.5Z" fill="#a05603" stroke="#a05603"></path><path d="M247.3 701.3L312.5 713.3L325.3 681Z" fill="#b57d00" stroke="#b57d00"></path><path d="M150.5 374.8L128.8 426L202.8 403.8Z" fill="#934306" stroke="#934306"></path><path d="M369.5 144.8L246 203.8L364.5 207Z" fill="#994c04" stroke="#994c04"></path><path d="M239 256.3L179.8 260.3L234.3 290.3Z" fill="#b98700" stroke="#b98700"></path><path d="M650 652L655.8 579.5L615.8 609.8Z" fill="#bd9100" stroke="#bd9100"></path><path d="M655.8 579.5L691 584.8L663.8 544.3Z" fill="#994c04" stroke="#994c04"></path><path d="M390.8 172.8L460 205.8L439.8 96.5Z" fill="#8c3a07" stroke="#8c3a07"></path><path d="M390.8 172.8L369.5 144.8L364.5 207Z" fill="#c09b03" stroke="#c09b03"></path><path d="M647 207.8L559.5 268.3L600.5 315.5Z" fill="#994c04" stroke="#994c04"></path><path d="M439.8 96.5L460 205.8L452 96.5Z" fill="#8c3a07" stroke="#8c3a07"></path><path d="M647 207.8L600.5 315.5L662.8 312.3Z" fill="#ab6900" stroke="#ab6900"></path><path d="M203 202L179.8 260.3L239 256.3Z" fill="#994c04" stroke="#994c04"></path><path d="M150.5 374.8L93.3 374.5L128.8 426Z" fill="#bd9100" stroke="#bd9100"></path><path d="M581.8 712.3L650 652L585.5 665.8Z" fill="#ab6900" stroke="#ab6900"></path><path d="M585.5 665.8L650 652L615.8 609.8Z" fill="#a65f01" stroke="#a65f01"></path><path d="M462 766.5L490.3 709.3L404 710.3Z" fill="#994c04" stroke="#994c04"></path><path d="M518.5 714L554.5 725.3L585.5 665.8Z" fill="#c09b03" stroke="#c09b03"></path><path d="M462 766.5L404 710.3L421.8 780.5Z" fill="#b98700" stroke="#b98700"></path><path d="M496.3 740.5L554.5 725.3L518.5 714Z" fill="#b07300" stroke="#b07300"></path><path d="M554.5 725.3L581.8 712.3L585.5 665.8Z" fill="#994c04" stroke="#994c04"></path><path d="M204.8 623.8L247.3 701.3L316.3 628.8Z" fill="#b07300" stroke="#b07300"></path><path d="M226 693.3L247.3 701.3L204.8 623.8Z" fill="#bd9100" stroke="#bd9100"></path><path d="M144.8 490.3L151.8 601.5L179 594.8Z" fill="#ab6900" stroke="#ab6900"></path><path d="M179 594.8L150.5 626.8L204.8 623.8Z" fill="#8c3a07" stroke="#8c3a07"></path><path d="M137.5 632L151.8 601.5L114.5 604.5Z" fill="#994c04" stroke="#994c04"></path><path d="M179.8 260.3L131.5 319.5L234.3 290.3Z" fill="#934306" stroke="#934306"></path><path d="M720 260.3L647 207.8L662.8 312.3Z" fill="#b98700" stroke="#b98700"></path><path d="M150.5 626.8L204 673L204.8 623.8Z" fill="#b98700" stroke="#b98700"></path><path d="M633.8 765.5L582.8 722L567.5 823.5Z" fill="#b07300" stroke="#b07300"></path><path d="M554.5 725.3L582.8 722L581.8 712.3Z" fill="#bd9100" stroke="#bd9100"></path><path d="M581.8 712.3L688.3 688.3L650 652Z" fill="#8c3a07" stroke="#8c3a07"></path><path d="M204 673L226 693.3L204.8 623.8Z" fill="#8c3a07" stroke="#8c3a07"></path><path d="M713 476.3L747.5 394.8L692.3 411Z" fill="#b98700" stroke="#b98700"></path><path d="M706 367.5L728.3 300.5L687.3 362.8Z" fill="#c09b03" stroke="#c09b03"></path><path d="M769.3 497.3L747.5 394.8L713 476.3Z" fill="#b98700" stroke="#b98700"></path><path d="M203 202L164.8 247L179.8 260.3Z" fill="#994c04" stroke="#994c04"></path><path d="M179.8 260.3L129.5 288.3L131.5 319.5Z" fill="#8c3a07" stroke="#8c3a07"></path><path d="M566.5 127.5L506.3 208.8L515.5 208Z" fill="#bd9100" stroke="#bd9100"></path><path d="M369.5 144.8L236.3 134.8L246 203.8Z" fill="#994c04" stroke="#994c04"></path><path d="M246 203.8L203 202L239 256.3Z" fill="#bd9100" stroke="#bd9100"></path><path d="M236.3 134.8L203 202L246 203.8Z" fill="#994c04" stroke="#994c04"></path><path d="M421.8 780.5L364.8 714.3L379.5 808.5Z" fill="#b07300" stroke="#b07300"></path><path d="M421.8 780.5L404 710.3L364.8 714.3Z" fill="#994c04" stroke="#994c04"></path><path d="M567.5 823.5L582.8 722L554.5 725.3Z" fill="#a65f01" stroke="#a65f01"></path><path d="M740.5 199.8L646.8 197L647 207.8Z" fill="#8c3a07" stroke="#8c3a07"></path><path d="M647 207.8L646.8 197L597.5 188.8Z" fill="#ab6900" stroke="#ab6900"></path><path d="M597.5 188.8L590.8 149.8L515.5 208Z" fill="#bd9100" stroke="#bd9100"></path><path d="M137.5 632L150.5 626.8L151.8 601.5Z" fill="#b57d00" stroke="#b57d00"></path><path d="M151.8 601.5L150.5 626.8L179 594.8Z" fill="#b07300" stroke="#b07300"></path><path d="M204 673L214.8 733.3L226 693.3Z" fill="#c09b03" stroke="#c09b03"></path><path d="M761.3 298.3L728.3 300.5L706 367.5Z" fill="#b07300" stroke="#b07300"></path><path d="M646.8 197L631 178L597.5 188.8Z" fill="#c09b03" stroke="#c09b03"></path><path d="M106.5 264L129.5 288.3L164.8 247Z" fill="#bd9100" stroke="#bd9100"></path><path d="M164.8 247L129.5 288.3L179.8 260.3Z" fill="#994c04" stroke="#994c04"></path><path d="M131.5 319.5L93.3 374.5L150.5 374.8Z" fill="#bd9100" stroke="#bd9100"></path><path d="M688.3 688.3L718.3 603.8L650 652Z" fill="#8c3a07" stroke="#8c3a07"></path><path d="M650 652L718.3 603.8L691 584.8Z" fill="#a65f01" stroke="#a65f01"></path><path d="M691 584.8L752.3 557.5L663.8 544.3Z" fill="#b57d00" stroke="#b57d00"></path><path d="M631 178L590.8 149.8L597.5 188.8Z" fill="#b07300" stroke="#b07300"></path><path d="M433 800.8L421.8 780.5L379.5 808.5Z" fill="#a05603" stroke="#a05603"></path><path d="M364.8 714.3L289.3 786.5L379.5 808.5Z" fill="#bd9100" stroke="#bd9100"></path><path d="M48.3 376.8L93.3 374.5L57.3 313.3Z" fill="#8c3a07" stroke="#8c3a07"></path><path d="M128.8 426L77.5 449L144.8 490.3Z" fill="#bd9100" stroke="#bd9100"></path><path d="M543.3 87.5L624.8 91.5L544.5 79.3Z" fill="#8c3a07" stroke="#8c3a07"></path><path d="M590.8 149.8L566.5 127.5L515.5 208Z" fill="#b98700" stroke="#b98700"></path><path d="M646.8 197L660.8 92.3L631 178Z" fill="#a65f01" stroke="#a65f01"></path><path d="M728.3 300.5L720 260.3L662.8 312.3Z" fill="#c09b03" stroke="#c09b03"></path><path d="M452 96.5L460 205.8L506.3 208.8Z" fill="#8c3a07" stroke="#8c3a07"></path><path d="M439.8 96.5L434.8 96.3L390.8 172.8Z" fill="#bd9100" stroke="#bd9100"></path><path d="M566.5 127.5L452 96.5L506.3 208.8Z" fill="#994c04" stroke="#994c04"></path><path d="M376.5 9.3L415 94.3L432 0Z" fill="#934306" stroke="#934306"></path><path d="M718.3 603.8L752.3 557.5L691 584.8Z" fill="#a65f01" stroke="#a65f01"></path><path d="M114.5 604.5L151.8 601.5L144.8 490.3Z" fill="#a65f01" stroke="#a65f01"></path><path d="M150.5 626.8L160.8 693L204 673Z" fill="#a05603" stroke="#a05603"></path><path d="M236.3 134.8L178.8 198.8L203 202Z" fill="#ab6900" stroke="#ab6900"></path><path d="M203 202L178.8 198.8L164.8 247Z" fill="#c09b03" stroke="#c09b03"></path><path d="M325.3 87.5L415 94.3L376.5 9.3Z" fill="#a65f01" stroke="#a65f01"></path><path d="M434.8 96.3L415 94.3L390.8 172.8Z" fill="#b98700" stroke="#b98700"></path><path d="M362.5 121.5L236.3 134.8L369.5 144.8Z" fill="#994c04" stroke="#994c04"></path><path d="M752.3 557.5L769.3 497.3L713 476.3Z" fill="#bd9100" stroke="#bd9100"></path><path d="M747.5 394.8L761.3 298.3L706 367.5Z" fill="#8c3a07" stroke="#8c3a07"></path><path d="M728.3 300.5L761.3 298.3L720 260.3Z" fill="#b07300" stroke="#b07300"></path><path d="M93.3 374.5L77.5 449L128.8 426Z" fill="#8c3a07" stroke="#8c3a07"></path><path d="M72.3 505.3L114.5 604.5L144.8 490.3Z" fill="#bd9100" stroke="#bd9100"></path><path d="M77.5 449L74.3 493L144.8 490.3Z" fill="#a05603" stroke="#a05603"></path><path d="M289.3 786.5L312.5 713.3L247.3 701.3Z" fill="#b07300" stroke="#b07300"></path><path d="M421.8 780.5L433 800.8L462 766.5Z" fill="#c09b03" stroke="#c09b03"></path><path d="M567.5 823.5L554.5 725.3L496.3 740.5Z" fill="#994c04" stroke="#994c04"></path><path d="M68.5 508.3L72.3 505.3L74.3 493Z" fill="#b98700" stroke="#b98700"></path><path d="M74.3 493L72.3 505.3L144.8 490.3Z" fill="#a65f01" stroke="#a65f01"></path><path d="M633.8 765.5L688.3 688.3L581.8 712.3Z" fill="#8c3a07" stroke="#8c3a07"></path><path d="M718.3 603.8L771.5 594.5L752.3 557.5Z" fill="#a65f01" stroke="#a65f01"></path><path d="M633.8 765.5L581.8 712.3L582.8 722Z" fill="#c09b03" stroke="#c09b03"></path><path d="M325.3 87.5L236.3 134.8L362.5 121.5Z" fill="#ab6900" stroke="#ab6900"></path><path d="M160.8 693L214.8 733.3L204 673Z" fill="#934306" stroke="#934306"></path><path d="M226 693.3L214.8 733.3L247.3 701.3Z" fill="#a65f01" stroke="#a65f01"></path><path d="M160.8 693L150.5 626.8L137.5 632Z" fill="#a65f01" stroke="#a65f01"></path><path d="M0 514.3L68.5 508.3L74.3 493Z" fill="#a65f01" stroke="#a65f01"></path><path d="M72.3 505.3L68.5 508.3L114.5 604.5Z" fill="#a65f01" stroke="#a65f01"></path><path d="M823.8 356.5L761.3 298.3L747.5 394.8Z" fill="#8c3a07" stroke="#8c3a07"></path><path d="M566.5 127.5L590.8 149.8L624.8 91.5Z" fill="#934306" stroke="#934306"></path><path d="M178.8 198.8L106.5 264L164.8 247Z" fill="#b98700" stroke="#b98700"></path><path d="M129.5 288.3L57.3 313.3L131.5 319.5Z" fill="#b98700" stroke="#b98700"></path><path d="M93.3 374.5L48.3 376.8L77.5 449Z" fill="#a05603" stroke="#a05603"></path><path d="M144.5 147.8L106.5 264L178.8 198.8Z" fill="#a05603" stroke="#a05603"></path><path d="M87.3 654L160.8 693L137.5 632Z" fill="#934306" stroke="#934306"></path><path d="M320.3 34.3L325.3 87.5L376.5 9.3Z" fill="#ab6900" stroke="#ab6900"></path><path d="M415 94.3L325.3 87.5L362.5 121.5Z" fill="#b98700" stroke="#b98700"></path><path d="M289.3 786.5L364.8 714.3L312.5 713.3Z" fill="#a05603" stroke="#a05603"></path><path d="M214.8 733.3L289.3 786.5L247.3 701.3Z" fill="#c09b03" stroke="#c09b03"></path><path d="M543.3 87.5L566.5 127.5L624.8 91.5Z" fill="#a05603" stroke="#a05603"></path><path d="M566.5 127.5L543.3 87.5L452 96.5Z" fill="#c09b03" stroke="#c09b03"></path><path d="M415 94.3L434.8 96.3L432 0Z" fill="#994c04" stroke="#994c04"></path><path d="M740.5 199.8L647 207.8L720 260.3Z" fill="#a05603" stroke="#a05603"></path><path d="M688.3 688.3L747.5 635L718.3 603.8Z" fill="#a65f01" stroke="#a65f01"></path><path d="M752.3 557.5L812.5 506.3L769.3 497.3Z" fill="#b07300" stroke="#b07300"></path><path d="M761.3 298.3L749.5 248.3L720 260.3Z" fill="#a05603" stroke="#a05603"></path><path d="M747.5 635L771.5 594.5L718.3 603.8Z" fill="#a05603" stroke="#a05603"></path><path d="M624.8 91.5L590.8 149.8L631 178Z" fill="#c09b03" stroke="#c09b03"></path><path d="M543.3 87.5L544.5 79.3L452 96.5Z" fill="#b57d00" stroke="#b57d00"></path><path d="M57.3 313.3L93.3 374.5L131.5 319.5Z" fill="#8c3a07" stroke="#8c3a07"></path><path d="M77.5 449L0 436L74.3 493Z" fill="#a05603" stroke="#a05603"></path><path d="M567.5 823.5L496.3 740.5L462 766.5Z" fill="#a65f01" stroke="#a65f01"></path><path d="M688.3 688.3L774.3 696L747.5 635Z" fill="#a05603" stroke="#a05603"></path><path d="M812.5 506.3L811.5 453L769.3 497.3Z" fill="#b98700" stroke="#b98700"></path><path d="M769.3 497.3L811.5 453L747.5 394.8Z" fill="#b98700" stroke="#b98700"></path><path d="M818.8 199.8L755.5 230L749.5 248.3Z" fill="#934306" stroke="#934306"></path><path d="M106.5 264L57.3 313.3L129.5 288.3Z" fill="#b57d00" stroke="#b57d00"></path><path d="M763.3 214L755.5 230L818.8 199.8Z" fill="#bd9100" stroke="#bd9100"></path><path d="M749.5 248.3L755.5 230L720 260.3Z" fill="#bd9100" stroke="#bd9100"></path><path d="M771.5 594.5L812.5 506.3L752.3 557.5Z" fill="#bd9100" stroke="#bd9100"></path><path d="M755.5 230L740.5 199.8L720 260.3Z" fill="#a65f01" stroke="#a65f01"></path><path d="M160.8 693L192 762.5L214.8 733.3Z" fill="#b57d00" stroke="#b57d00"></path><path d="M214.8 733.3L192 762.5L289.3 786.5Z" fill="#a05603" stroke="#a05603"></path><path d="M145.8 765.5L192 762.5L160.8 693Z" fill="#ab6900" stroke="#ab6900"></path><path d="M867.8 476L825.8 437.8L811.5 453Z" fill="#b57d00" stroke="#b57d00"></path><path d="M811.5 453L825.8 437.8L747.5 394.8Z" fill="#b98700" stroke="#b98700"></path><path d="M39.3 577.5L87.3 654L114.5 604.5Z" fill="#b57d00" stroke="#b57d00"></path><path d="M114.5 604.5L87.3 654L137.5 632Z" fill="#a65f01" stroke="#a65f01"></path><path d="M39.3 577.5L114.5 604.5L68.5 508.3Z" fill="#a05603" stroke="#a05603"></path><path d="M660.8 92.3L624.8 91.5L631 178Z" fill="#8c3a07" stroke="#8c3a07"></path><path d="M825.8 437.8L823.8 356.5L747.5 394.8Z" fill="#a65f01" stroke="#a65f01"></path><path d="M755.5 230L763.3 214L740.5 199.8Z" fill="#b98700" stroke="#b98700"></path><path d="M818.8 199.8L749.5 248.3L761.3 298.3Z" fill="#ab6900" stroke="#ab6900"></path><path d="M740.5 199.8L660.8 92.3L646.8 197Z" fill="#c09b03" stroke="#c09b03"></path><path d="M189 86.3L144.5 147.8L236.3 134.8Z" fill="#a05603" stroke="#a05603"></path><path d="M236.3 134.8L144.5 147.8L178.8 198.8Z" fill="#ab6900" stroke="#ab6900"></path><path d="M106.5 264L0 270.3L57.3 313.3Z" fill="#994c04" stroke="#994c04"></path><path d="M461.3 858.8L567.5 823.5L462 766.5Z" fill="#c09b03" stroke="#c09b03"></path><path d="M461.3 858.8L462 766.5L433 800.8Z" fill="#994c04" stroke="#994c04"></path><path d="M633.8 765.5L704 740.3L688.3 688.3Z" fill="#bd9100" stroke="#bd9100"></path><path d="M747.5 635L816.5 656.8L771.5 594.5Z" fill="#b57d00" stroke="#b57d00"></path><path d="M900 500.3L867.8 476L900 525.5Z" fill="#b57d00" stroke="#b57d00"></path><path d="M708 747.5L704 740.3L633.8 765.5Z" fill="#934306" stroke="#934306"></path><path d="M0 548.5L39.3 577.5L68.5 508.3Z" fill="#c09b03" stroke="#c09b03"></path><path d="M900 344.5L823.5 326.5L823.8 356.5Z" fill="#bd9100" stroke="#bd9100"></path><path d="M823.8 356.5L823.5 326.5L761.3 298.3Z" fill="#ab6900" stroke="#ab6900"></path><path d="M757.3 788.5L708 747.5L666 858.8Z" fill="#ab6900" stroke="#ab6900"></path><path d="M704 740.3L774.3 696L688.3 688.3Z" fill="#a65f01" stroke="#a65f01"></path><path d="M426.8 874.8L433 800.8L379.5 808.5Z" fill="#a65f01" stroke="#a65f01"></path><path d="M426.8 874.8L461.3 858.8L433 800.8Z" fill="#934306" stroke="#934306"></path><path d="M374.5 868.8L379.5 808.5L317.3 872.8Z" fill="#a65f01" stroke="#a65f01"></path><path d="M764.3 150.8L660.8 92.3L740.5 199.8Z" fill="#934306" stroke="#934306"></path><path d="M526.3 8.3L452 96.5L544.5 79.3Z" fill="#bd9100" stroke="#bd9100"></path><path d="M434.8 96.3L439.8 96.5L432 0Z" fill="#b57d00" stroke="#b57d00"></path><path d="M325.3 87.5L320.3 34.3L236.3 134.8Z" fill="#8c3a07" stroke="#8c3a07"></path><path d="M439.8 96.5L452 96.5L432 0Z" fill="#b98700" stroke="#b98700"></path><path d="M0 673L89.5 694.3L87.3 654Z" fill="#934306" stroke="#934306"></path><path d="M87.3 654L89.5 694.3L160.8 693Z" fill="#a65f01" stroke="#a65f01"></path><path d="M0 353.8L0 436L48.3 376.8Z" fill="#bd9100" stroke="#bd9100"></path><path d="M48.3 376.8L0 436L77.5 449Z" fill="#b98700" stroke="#b98700"></path><path d="M320.3 34.3L189 86.3L236.3 134.8Z" fill="#b07300" stroke="#b07300"></path><path d="M89.5 694.3L145.8 765.5L160.8 693Z" fill="#bd9100" stroke="#bd9100"></path><path d="M317.3 872.8L379.5 808.5L289.3 786.5Z" fill="#bd9100" stroke="#bd9100"></path><path d="M179.8 77.5L186 85.5L189 86.3Z" fill="#c09b03" stroke="#c09b03"></path><path d="M189 86.3L186 85.5L144.5 147.8Z" fill="#b57d00" stroke="#b57d00"></path><path d="M205 848.8L289.3 786.5L192 762.5Z" fill="#bd9100" stroke="#bd9100"></path><path d="M708 747.5L774.3 696L704 740.3Z" fill="#8c3a07" stroke="#8c3a07"></path><path d="M0 436L0 514.3L74.3 493Z" fill="#a05603" stroke="#a05603"></path><path d="M39.3 577.5L22.3 635.8L87.3 654Z" fill="#c09b03" stroke="#c09b03"></path><path d="M374.5 868.8L426.8 874.8L379.5 808.5Z" fill="#b98700" stroke="#b98700"></path><path d="M461.3 858.8L516.5 886.8L567.5 823.5Z" fill="#ab6900" stroke="#ab6900"></path><path d="M432 0L452 96.5L526.3 8.3Z" fill="#bd9100" stroke="#bd9100"></path><path d="M208.8 0L179.8 77.5L189 86.3Z" fill="#a05603" stroke="#a05603"></path><path d="M0 344.5L0 353.8L48.3 376.8Z" fill="#8c3a07" stroke="#8c3a07"></path><path d="M0 344.5L48.3 376.8L57.3 313.3Z" fill="#b07300" stroke="#b07300"></path><path d="M0 344.5L57.3 313.3L0 270.3Z" fill="#934306" stroke="#934306"></path><path d="M54.3 178L106.5 264L144.5 147.8Z" fill="#bd9100" stroke="#bd9100"></path><path d="M208.8 0L189 86.3L320.3 34.3Z" fill="#a05603" stroke="#a05603"></path><path d="M186 85.5L139.8 70.3L144.5 147.8Z" fill="#994c04" stroke="#994c04"></path><path d="M0 514.3L0 548.5L68.5 508.3Z" fill="#b98700" stroke="#b98700"></path><path d="M526.3 8.3L544.5 79.3L552.3 0Z" fill="#a65f01" stroke="#a65f01"></path><path d="M812.5 506.3L867.8 476L811.5 453Z" fill="#bd9100" stroke="#bd9100"></path><path d="M825.8 437.8L900 366.8L823.8 356.5Z" fill="#bd9100" stroke="#bd9100"></path><path d="M868.8 589.5L812.5 506.3L771.5 594.5Z" fill="#934306" stroke="#934306"></path><path d="M101.5 796.8L151.5 789.5L145.8 765.5Z" fill="#b07300" stroke="#b07300"></path><path d="M145.8 765.5L151.5 789.5L192 762.5Z" fill="#b57d00" stroke="#b57d00"></path><path d="M552.3 0L544.5 79.3L600.8 0Z" fill="#a65f01" stroke="#a65f01"></path><path d="M432 0L368.8 0L376.5 9.3Z" fill="#934306" stroke="#934306"></path><path d="M376.5 9.3L367.5 0L320.3 34.3Z" fill="#c09b03" stroke="#c09b03"></path><path d="M368.8 0L367.5 0L376.5 9.3Z" fill="#b07300" stroke="#b07300"></path><path d="M281.3 900L317.3 872.8L289.3 786.5Z" fill="#8c3a07" stroke="#8c3a07"></path><path d="M361.8 900L451 900L426.8 874.8Z" fill="#8c3a07" stroke="#8c3a07"></path><path d="M818.8 199.8L764.3 150.8L763.3 214Z" fill="#a65f01" stroke="#a65f01"></path><path d="M763.3 214L764.3 150.8L740.5 199.8Z" fill="#a05603" stroke="#a05603"></path><path d="M600.8 0L544.5 79.3L624.8 91.5Z" fill="#ab6900" stroke="#ab6900"></path><path d="M774.3 696L816.5 656.8L747.5 635Z" fill="#a05603" stroke="#a05603"></path><path d="M900 500.3L873.8 464.3L867.8 476Z" fill="#b07300" stroke="#b07300"></path><path d="M867.8 476L873.8 464.3L825.8 437.8Z" fill="#994c04" stroke="#994c04"></path><path d="M823.5 326.5L818.8 199.8L761.3 298.3Z" fill="#b98700" stroke="#b98700"></path><path d="M0 631.8L22.3 635.8L39.3 577.5Z" fill="#8c3a07" stroke="#8c3a07"></path><path d="M89.5 694.3L66.3 728.3L145.8 765.5Z" fill="#bd9100" stroke="#bd9100"></path><path d="M367.5 0L325.3 0L320.3 34.3Z" fill="#b57d00" stroke="#b57d00"></path><path d="M451 900L461.3 858.8L426.8 874.8Z" fill="#b57d00" stroke="#b57d00"></path><path d="M482.3 900L516.5 886.8L461.3 858.8Z" fill="#bd9100" stroke="#bd9100"></path><path d="M666 858.8L708 747.5L633.8 765.5Z" fill="#ab6900" stroke="#ab6900"></path><path d="M64.5 150.5L54.3 178L144.5 147.8Z" fill="#934306" stroke="#934306"></path><path d="M600.8 0L624.8 91.5L605.5 0Z" fill="#bd9100" stroke="#bd9100"></path><path d="M526.3 8.3L552.3 0L432 0Z" fill="#b98700" stroke="#b98700"></path><path d="M54.3 178L0 270.3L106.5 264Z" fill="#994c04" stroke="#994c04"></path><path d="M361.8 900L426.8 874.8L374.5 868.8Z" fill="#a05603" stroke="#a05603"></path><path d="M0 673L66.3 728.3L89.5 694.3Z" fill="#994c04" stroke="#994c04"></path><path d="M880.8 237L818.8 199.8L823.5 326.5Z" fill="#8c3a07" stroke="#8c3a07"></path><path d="M451 900L482.3 900L461.3 858.8Z" fill="#ab6900" stroke="#ab6900"></path><path d="M308.5 900L361.8 900L317.3 872.8Z" fill="#ab6900" stroke="#ab6900"></path><path d="M317.3 872.8L361.8 900L374.5 868.8Z" fill="#a65f01" stroke="#a65f01"></path><path d="M199.8 876.8L139.5 900L181.8 900Z" fill="#b57d00" stroke="#b57d00"></path><path d="M151.5 789.5L205 848.8L192 762.5Z" fill="#a05603" stroke="#a05603"></path><path d="M70.3 133.5L64.5 150.5L144.5 147.8Z" fill="#b98700" stroke="#b98700"></path><path d="M54.3 178L0 180L0 270.3Z" fill="#934306" stroke="#934306"></path><path d="M720 77.5L660.8 92.3L764.3 150.8Z" fill="#b57d00" stroke="#b57d00"></path><path d="M720 77.5L701 64.3L660.8 92.3Z" fill="#ab6900" stroke="#ab6900"></path><path d="M816.5 656.8L868.8 589.5L771.5 594.5Z" fill="#bd9100" stroke="#bd9100"></path><path d="M22.3 635.8L0 673L87.3 654Z" fill="#bd9100" stroke="#bd9100"></path><path d="M0 548.5L0 631.8L39.3 577.5Z" fill="#c09b03" stroke="#c09b03"></path><path d="M64.5 150.5L53.3 159.8L54.3 178Z" fill="#bd9100" stroke="#bd9100"></path><path d="M765.3 105.5L720 77.5L764.3 150.8Z" fill="#934306" stroke="#934306"></path><path d="M198 0L139.8 70.3L179.8 77.5Z" fill="#b07300" stroke="#b07300"></path><path d="M179.8 77.5L139.8 70.3L186 85.5Z" fill="#c09b03" stroke="#c09b03"></path><path d="M64.5 150.5L70.3 133.5L53.3 159.8Z" fill="#b98700" stroke="#b98700"></path><path d="M120.5 70.3L70.3 133.5L144.5 147.8Z" fill="#ab6900" stroke="#ab6900"></path><path d="M281.3 900L308.5 900L317.3 872.8Z" fill="#b57d00" stroke="#b57d00"></path><path d="M900 500.3L900 430L873.8 464.3Z" fill="#a65f01" stroke="#a65f01"></path><path d="M873.8 464.3L900 430L825.8 437.8Z" fill="#8c3a07" stroke="#8c3a07"></path><path d="M605.5 0L624.8 91.5L660.8 92.3Z" fill="#8c3a07" stroke="#8c3a07"></path><path d="M701 64.3L605.5 0L660.8 92.3Z" fill="#a05603" stroke="#a05603"></path><path d="M774.3 696L828.5 717.3L816.5 656.8Z" fill="#934306" stroke="#934306"></path><path d="M863.8 652L877.8 603.8L868.8 589.5Z" fill="#bd9100" stroke="#bd9100"></path><path d="M757.3 788.5L805.8 729.3L774.3 696Z" fill="#8c3a07" stroke="#8c3a07"></path><path d="M757.3 788.5L774.3 696L708 747.5Z" fill="#ab6900" stroke="#ab6900"></path><path d="M738.3 0L702 0L701 64.3Z" fill="#994c04" stroke="#994c04"></path><path d="M701 64.3L702 0L605.5 0Z" fill="#a05603" stroke="#a05603"></path><path d="M807.5 101.5L765.3 105.5L764.3 150.8Z" fill="#a65f01" stroke="#a65f01"></path><path d="M900 525.5L867.8 476L812.5 506.3Z" fill="#994c04" stroke="#994c04"></path><path d="M900 430L900 366.8L825.8 437.8Z" fill="#b98700" stroke="#b98700"></path><path d="M666 858.8L633.8 765.5L567.5 823.5Z" fill="#a05603" stroke="#a05603"></path><path d="M863.8 652L868.8 589.5L816.5 656.8Z" fill="#994c04" stroke="#994c04"></path><path d="M868.8 589.5L900 525.5L812.5 506.3Z" fill="#8c3a07" stroke="#8c3a07"></path><path d="M482.3 900L569.5 900L516.5 886.8Z" fill="#bd9100" stroke="#bd9100"></path><path d="M516.5 886.8L569.5 900L567.5 823.5Z" fill="#934306" stroke="#934306"></path><path d="M900 326.3L882.8 290.3L823.5 326.5Z" fill="#c09b03" stroke="#c09b03"></path><path d="M807.5 101.5L776.5 83.3L765.3 105.5Z" fill="#8c3a07" stroke="#8c3a07"></path><path d="M121.5 0L120.5 70.3L139.8 70.3Z" fill="#ab6900" stroke="#ab6900"></path><path d="M139.8 70.3L120.5 70.3L144.5 147.8Z" fill="#c09b03" stroke="#c09b03"></path><path d="M900 611.8L900 525.5L868.8 589.5Z" fill="#b57d00" stroke="#b57d00"></path><path d="M205 848.8L281.3 900L289.3 786.5Z" fill="#b57d00" stroke="#b57d00"></path><path d="M633.8 890.8L666 858.8L567.5 823.5Z" fill="#b57d00" stroke="#b57d00"></path><path d="M66.3 728.3L101.5 796.8L145.8 765.5Z" fill="#994c04" stroke="#994c04"></path><path d="M205 848.8L216 900L281.3 900Z" fill="#c09b03" stroke="#c09b03"></path><path d="M41.3 747.5L101.5 796.8L66.3 728.3Z" fill="#994c04" stroke="#994c04"></path><path d="M900 366.8L900 344.5L823.8 356.5Z" fill="#934306" stroke="#934306"></path><path d="M0 631.8L0 673L22.3 635.8Z" fill="#a65f01" stroke="#a65f01"></path><path d="M828.5 717.3L863.8 652L816.5 656.8Z" fill="#934306" stroke="#934306"></path><path d="M900 344.5L900 326.3L823.5 326.5Z" fill="#c09b03" stroke="#c09b03"></path><path d="M816.5 784.5L828.5 717.3L805.8 729.3Z" fill="#934306" stroke="#934306"></path><path d="M805.8 729.3L828.5 717.3L774.3 696Z" fill="#b07300" stroke="#b07300"></path><path d="M199.8 876.8L205 848.8L139.5 900Z" fill="#bd9100" stroke="#bd9100"></path><path d="M325.3 0L208.8 0L320.3 34.3Z" fill="#bd9100" stroke="#bd9100"></path><path d="M0 728.3L41.3 747.5L66.3 728.3Z" fill="#8c3a07" stroke="#8c3a07"></path><path d="M569.5 900L633.8 890.8L567.5 823.5Z" fill="#a05603" stroke="#a05603"></path><path d="M666 858.8L769.3 819.8L757.3 788.5Z" fill="#8c3a07" stroke="#8c3a07"></path><path d="M208.8 0L198 0L179.8 77.5Z" fill="#b07300" stroke="#b07300"></path><path d="M900 229L880.8 237L882.8 290.3Z" fill="#b07300" stroke="#b07300"></path><path d="M882.8 290.3L880.8 237L823.5 326.5Z" fill="#994c04" stroke="#994c04"></path><path d="M0 171.8L53.3 159.8L0 66.5Z" fill="#b98700" stroke="#b98700"></path><path d="M0 171.8L54.3 178L53.3 159.8Z" fill="#ab6900" stroke="#ab6900"></path><path d="M0 171.8L0 180L54.3 178Z" fill="#b98700" stroke="#b98700"></path><path d="M807.5 101.5L764.3 150.8L818.8 199.8Z" fill="#b98700" stroke="#b98700"></path><path d="M765.3 105.5L776.5 83.3L720 77.5Z" fill="#a65f01" stroke="#a65f01"></path><path d="M569.5 900L633 900L633.8 890.8Z" fill="#ab6900" stroke="#ab6900"></path><path d="M633.8 890.8L638.8 900L666 858.8Z" fill="#b57d00" stroke="#b57d00"></path><path d="M900 719L900 611.8L863.8 652Z" fill="#ab6900" stroke="#ab6900"></path><path d="M863.8 652L900 611.8L877.8 603.8Z" fill="#b98700" stroke="#b98700"></path><path d="M877.8 603.8L900 611.8L868.8 589.5Z" fill="#c09b03" stroke="#c09b03"></path><path d="M0 66.5L53.3 159.8L70.3 133.5Z" fill="#b57d00" stroke="#b57d00"></path><path d="M0 66.5L70.3 133.5L120.5 70.3Z" fill="#994c04" stroke="#994c04"></path><path d="M205 848.8L151.5 789.5L139.5 900Z" fill="#a65f01" stroke="#a65f01"></path><path d="M181.8 900L216 900L199.8 876.8Z" fill="#994c04" stroke="#994c04"></path><path d="M199.8 876.8L216 900L205 848.8Z" fill="#994c04" stroke="#994c04"></path><path d="M633 900L638.8 900L633.8 890.8Z" fill="#a05603" stroke="#a05603"></path><path d="M888.8 142.5L807.5 101.5L818.8 199.8Z" fill="#934306" stroke="#934306"></path><path d="M757.3 788.5L816.5 784.5L805.8 729.3Z" fill="#a65f01" stroke="#a65f01"></path><path d="M828.5 717.3L900 719L863.8 652Z" fill="#994c04" stroke="#994c04"></path><path d="M763.5 861.8L769.3 819.8L666 858.8Z" fill="#994c04" stroke="#994c04"></path><path d="M0 673L0 728.3L66.3 728.3Z" fill="#8c3a07" stroke="#8c3a07"></path><path d="M63.3 900L139.5 900L101.5 796.8Z" fill="#c09b03" stroke="#c09b03"></path><path d="M900 326.3L900 229L882.8 290.3Z" fill="#b98700" stroke="#b98700"></path><path d="M880.8 237L888.8 142.5L818.8 199.8Z" fill="#934306" stroke="#934306"></path><path d="M769.3 819.8L816.5 784.5L757.3 788.5Z" fill="#c09b03" stroke="#c09b03"></path><path d="M139.5 900L151.5 789.5L101.5 796.8Z" fill="#b98700" stroke="#b98700"></path><path d="M759.3 33.3L701 64.3L720 77.5Z" fill="#994c04" stroke="#994c04"></path><path d="M759.3 33.3L720 77.5L776.5 83.3Z" fill="#b98700" stroke="#b98700"></path><path d="M738.3 0L759.3 33.3L754.5 0Z" fill="#b07300" stroke="#b07300"></path><path d="M876.8 35.3L759.3 33.3L776.5 83.3Z" fill="#c09b03" stroke="#c09b03"></path><path d="M198 0L121.5 0L139.8 70.3Z" fill="#b57d00" stroke="#b57d00"></path><path d="M757.3 900L763.5 861.8L666 858.8Z" fill="#b07300" stroke="#b07300"></path><path d="M769.3 819.8L829.8 801.5L816.5 784.5Z" fill="#b07300" stroke="#b07300"></path><path d="M754.5 0L759.3 33.3L876.8 35.3Z" fill="#a65f01" stroke="#a65f01"></path><path d="M759.3 33.3L738.3 0L701 64.3Z" fill="#b07300" stroke="#b07300"></path><path d="M796.8 867.8L829.8 801.5L769.3 819.8Z" fill="#934306" stroke="#934306"></path><path d="M900 746.5L900 719L828.5 717.3Z" fill="#934306" stroke="#934306"></path><path d="M9.3 812.8L101.5 796.8L41.3 747.5Z" fill="#8c3a07" stroke="#8c3a07"></path><path d="M900 746.5L828.5 717.3L900 752.3Z" fill="#c09b03" stroke="#c09b03"></path><path d="M876.8 35.3L776.5 83.3L807.5 101.5Z" fill="#a65f01" stroke="#a65f01"></path><path d="M0 728.3L0 788.5L41.3 747.5Z" fill="#b07300" stroke="#b07300"></path><path d="M900 229L888.8 142.5L880.8 237Z" fill="#b98700" stroke="#b98700"></path><path d="M121.5 0L70.3 12.3L120.5 70.3Z" fill="#b07300" stroke="#b07300"></path><path d="M0 788.5L9.3 812.8L41.3 747.5Z" fill="#b57d00" stroke="#b57d00"></path><path d="M900 752.3L816.5 784.5L829.8 801.5Z" fill="#b98700" stroke="#b98700"></path><path d="M900 752.3L828.5 717.3L816.5 784.5Z" fill="#c09b03" stroke="#c09b03"></path><path d="M900 229L900 135.8L888.8 142.5Z" fill="#a05603" stroke="#a05603"></path><path d="M888.8 142.5L900 74.5L807.5 101.5Z" fill="#b07300" stroke="#b07300"></path><path d="M759.5 900L796.8 867.8L763.5 861.8Z" fill="#b57d00" stroke="#b57d00"></path><path d="M763.5 861.8L796.8 867.8L769.3 819.8Z" fill="#c09b03" stroke="#c09b03"></path><path d="M638.8 900L757.3 900L666 858.8Z" fill="#a05603" stroke="#a05603"></path><path d="M900 865.8L900 752.3L829.8 801.5Z" fill="#b07300" stroke="#b07300"></path><path d="M757.3 900L759.5 900L763.5 861.8Z" fill="#ab6900" stroke="#ab6900"></path><path d="M70.3 12.3L0 66.5L120.5 70.3Z" fill="#b98700" stroke="#b98700"></path><path d="M70.3 12.3L0 66.3L0 66.5Z" fill="#ab6900" stroke="#ab6900"></path><path d="M121.5 0L62.3 0L70.3 12.3Z" fill="#c09b03" stroke="#c09b03"></path><path d="M70.3 12.3L0 0L0 66.3Z" fill="#994c04" stroke="#994c04"></path><path d="M0 788.5L0 825.8L9.3 812.8Z" fill="#c09b03" stroke="#c09b03"></path><path d="M9.3 812.8L63.3 900L101.5 796.8Z" fill="#b98700" stroke="#b98700"></path><path d="M0 825.8L63.3 900L9.3 812.8Z" fill="#a05603" stroke="#a05603"></path><path d="M900 135.8L900 74.5L888.8 142.5Z" fill="#8c3a07" stroke="#8c3a07"></path><path d="M900 74.5L876.8 35.3L807.5 101.5Z" fill="#b57d00" stroke="#b57d00"></path><path d="M759.5 900L828.8 900L796.8 867.8Z" fill="#ab6900" stroke="#ab6900"></path><path d="M796.8 867.8L828.8 900L829.8 801.5Z" fill="#b57d00" stroke="#b57d00"></path><path d="M62.3 0L0 0L70.3 12.3Z" fill="#b57d00" stroke="#b57d00"></path><path d="M0 825.8L0 900L63.3 900Z" fill="#ab6900" stroke="#ab6900"></path><path d="M900 74.5L900 18.3L876.8 35.3Z" fill="#b07300" stroke="#b07300"></path><path d="M876.8 35.3L887.8 0L754.5 0Z" fill="#b07300" stroke="#b07300"></path><path d="M828.8 900L900 865.8L829.8 801.5Z" fill="#a05603" stroke="#a05603"></path><path d="M900 18.3L887.8 0L876.8 35.3Z" fill="#b98700" stroke="#b98700"></path><path d="M900 18.3L900 0L887.8 0Z" fill="#c09b03" stroke="#c09b03"></path><path d="M828.8 900L900 900L900 865.8Z" fill="#b57d00" stroke="#b57d00"></path></g></svg>